<svg width="146" height="146" viewBox="0 0 146 146" fill="none" xmlns="http://www.w3.org/2000/svg">
<g opacity="0.05">
<path d="M0 21.1C0 9.44678 9.44679 0 21.1 0H29.2V8.10001C29.2 19.7532 19.7532 29.2 8.1 29.2H0V21.1Z" fill="#1DA1F2"/>
<path d="M0 43.8C0 35.7366 6.53664 29.2 14.6 29.2V29.2C22.6634 29.2 29.2 35.7366 29.2 43.8V58.4H14.6C6.53664 58.4 0 51.8633 0 43.8V43.8Z" fill="#1DA1F2"/>
<rect y="58.4" width="29.2" height="29.2" rx="14.6" fill="#1DA1F2"/>
<path d="M0 87.6H8.10001C19.7532 87.6 29.2 97.0468 29.2 108.7V116.8H20.6694C9.25399 116.8 0 107.546 0 96.1306V87.6Z" fill="#1DA1F2"/>
<path d="M0 116.8H29.2V146H21.1C9.44678 146 0 136.553 0 124.9V116.8Z" fill="#1DA1F2"/>
<rect x="29.2" width="29.2" height="29.2" rx="14.6" fill="#1DA1F2"/>
<path d="M29.2 29.2H37.3C48.9532 29.2 58.4 38.6467 58.4 50.2999V58.4H29.2V29.2Z" fill="#1DA1F2"/>
<path d="M29.2 79.5C29.2 67.8468 38.6468 58.4 50.3 58.4H58.4V66.5C58.4 78.1532 48.9532 87.6 37.3 87.6H29.2V79.5Z" fill="#1DA1F2"/>
<path d="M29.2 87.6H37.3C48.9532 87.6 58.4 97.0468 58.4 108.7V116.8H50.3C38.6468 116.8 29.2 107.353 29.2 95.7V87.6Z" fill="#1DA1F2"/>
<path d="M29.2 116.8H37.3C48.9532 116.8 58.4 126.247 58.4 137.9V146H50.3C38.6468 146 29.2 136.553 29.2 124.9V116.8Z" fill="#1DA1F2"/>
<path d="M58.4 0H87.6V29.2H79.5C67.8468 29.2 58.4 19.7532 58.4 8.1V0Z" fill="#1DA1F2"/>
<path d="M58.4 50.2999C58.4 38.6467 67.8468 29.2 79.5 29.2H87.6V37.3C87.6 48.9532 78.1532 58.4 66.5 58.4H58.4V50.2999Z" fill="#1DA1F2"/>
<path d="M58.4 73C58.4 64.9367 64.9367 58.4 73 58.4V58.4C81.0634 58.4 87.6 64.9367 87.6 73V87.6H73C64.9367 87.6 58.4 81.0634 58.4 73V73Z" fill="#1DA1F2"/>
<path d="M58.4 102.2C58.4 94.1366 64.9367 87.6 73 87.6H87.6V116.8H73C64.9367 116.8 58.4 110.263 58.4 102.2V102.2Z" fill="#1DA1F2"/>
<path d="M58.4 124.264C58.4 120.142 61.7417 116.8 65.864 116.8H66.5C78.1532 116.8 87.6 126.247 87.6 137.9V146H79.5C67.8468 146 58.4 136.553 58.4 124.9V124.264Z" fill="#1DA1F2"/>
<path d="M87.6 14.6C87.6 6.53664 94.1366 0 102.2 0V0C110.263 0 116.8 6.53664 116.8 14.6V29.2H102.2C94.1366 29.2 87.6 22.6634 87.6 14.6V14.6Z" fill="#1DA1F2"/>
<path d="M87.6 43.8C87.6 35.7366 94.1366 29.2 102.2 29.2H116.8V43.8C116.8 51.8633 110.263 58.4 102.2 58.4V58.4C94.1366 58.4 87.6 51.8633 87.6 43.8V43.8Z" fill="#1DA1F2"/>
<path d="M87.6 58.4H95.7C107.353 58.4 116.8 67.8468 116.8 79.5V87.6H108.7C97.0468 87.6 87.6 78.1532 87.6 66.5V58.4Z" fill="#1DA1F2"/>
<path d="M87.6 108.7C87.6 97.0468 97.0468 87.6 108.7 87.6H116.8V95.7C116.8 107.353 107.353 116.8 95.7 116.8H87.6V108.7Z" fill="#1DA1F2"/>
<path d="M87.6 137.9C87.6 126.247 97.0468 116.8 108.7 116.8H111.633C114.486 116.8 116.8 119.114 116.8 121.967V124.9C116.8 136.553 107.353 146 95.7 146H87.6V137.9Z" fill="#1DA1F2"/>
<path d="M116.8 0H124.9C136.553 0 146 9.44679 146 21.1V29.2H137.9C126.247 29.2 116.8 19.7532 116.8 8.1V0Z" fill="#1DA1F2"/>
<path d="M116.8 29.2H131.4C139.463 29.2 146 35.7366 146 43.8V43.8C146 51.8633 139.463 58.4 131.4 58.4V58.4C123.337 58.4 116.8 51.8633 116.8 43.7999V29.2Z" fill="#1DA1F2"/>
<rect x="116.8" y="58.4" width="29.2" height="29.2" rx="14.6" fill="#1DA1F2"/>
<rect x="116.8" y="87.6" width="29.2" height="29.2" rx="12.9184" fill="#1DA1F2"/>
<rect x="116.8" y="116.8" width="29.2" height="29.2" rx="14.6" fill="#1DA1F2"/>
</g>
</svg>
